<svg xmlns="http://www.w3.org/2000/svg" viewBox="0 0 2000 1846" width="500" height="461">
  <rect width="2000" height="1846" fill="#0d1b2e"/>
  <path d="M1361 1616 c-25 -2 -47 -6 -70 -14 -28 -9 -49 -19 -75 -36 -21 -14
-34 -25 -52 -43 -23 -23 -33 -37 -53 -74 -2 -2 -5 -10 -8 -16 -25 -56 -33
-123 -22 -177 5 -27 17 -38 35 -35 3 1 8 2 11 4 9 4 29 20 42 32 17 18 21 26
25 58 3 20 3 20 6 32 17 70 67 123 136 143 24 8 59 10 84 5 70 -13 131 -67
152 -136 3 -10 5 -20 7 -36 1 -13 1 -17 0 -29 -2 -26 -8 -47 -19 -70 -16 -31
-39 -58 -65 -76 -30 -20 -57 -30 -98 -35 -23 -3 -36 -9 -49 -20 -8 -8 -31 -39
-37 -49 -11 -20 -6 -37 14 -44 12 -4 18 -5 58 -4 34 0 39 0 53 2 26 4 44 9 66
18 69 28 127 80 162 148 16 30 30 77 34 112 1 13 1 48 0 63 -7 73 -47 151
-103 199 -52 45 -108 71 -168 77 -11 2 -55 2 -66 1z M1382 1357 c-8 -2 -14 -5
-31 -18 -17 -13 -63 -49 -65 -52 0 -1 -11 -9 -31 -26 -4 -3 -12 -9 -17 -13 -6
-4 -16 -12 -22 -17 -6 -6 -15 -13 -19 -16 -8 -7 -15 -12 -32 -25 -19 -16 -40
-31 -45 -34 -3 -2 -7 -4 -10 -4 -4 -1 -48 -2 -138 -2 l-132 -1 -8 -2 c-27 -8
-48 -29 -56 -56 l-2 -7 -1 -131 c0 -146 1 -136 -7 -148 -6 -9 -20 -28 -31 -41
-8 -10 -15 -19 -39 -50 -5 -7 -13 -18 -18 -23 -4 -5 -10 -14 -14 -19 -9 -12
-22 -30 -36 -47 -6 -8 -15 -19 -19 -23 -3 -5 -9 -13 -12 -17 -7 -9 -22 -29
-26 -36 -7 -10 -11 -22 -11 -30 0 -12 6 -27 14 -35 6 -6 12 -10 23 -13 20 -6
32 0 64 28 7 6 26 22 33 27 2 1 7 5 11 9 4 4 12 10 16 14 5 3 12 8 15 11 2 2
16 13 30 25 27 22 29 24 49 39 18 14 25 19 26 20 2 2 20 17 27 22 12 9 16 11
29 12 15 1 197 1 207 0 11 -1 19 -6 35 -19 7 -6 20 -16 28 -22 8 -6 17 -14 21
-17 3 -2 10 -8 15 -11 9 -7 13 -11 46 -38 10 -9 23 -19 29 -24 13 -10 47 -38
71 -57 15 -13 26 -18 36 -20 10 -1 22 1 31 7 13 8 21 23 23 40 0 6 0 9 -2 16
-2 4 -5 10 -7 14 -4 6 -30 42 -35 48 -4 4 -14 17 -33 41 -7 9 -19 25 -27 35
-8 10 -20 26 -27 35 -7 9 -14 19 -16 22 -3 2 -12 14 -21 26 -9 12 -21 28 -27
37 -6 8 -13 17 -14 20 l-2 5 0 99 c0 98 0 99 2 103 2 5 24 35 31 45 3 2 8 9
13 16 5 6 14 17 21 26 6 8 13 17 15 20 6 8 20 27 26 34 2 3 9 12 15 20 6 7 19
24 29 37 57 75 57 76 57 94 0 18 -8 33 -22 41 -11 7 -23 9 -33 6z M1356 834
c-36 -3 -49 -11 -51 -27 -2 -10 3 -21 16 -38 26 -35 36 -44 55 -49 4 -2 16 -4
27 -5 27 -4 43 -9 62 -17 9 -5 25 -14 34 -20 10 -8 34 -31 42 -42 21 -29 34
-63 38 -102 3 -28 -4 -63 -19 -93 -27 -57 -78 -95 -140 -107 -11 -2 -16 -2
-34 -2 -19 0 -24 0 -34 2 -61 12 -109 49 -137 105 -13 26 -17 40 -22 80 -2 23
-6 33 -17 46 -11 12 -39 35 -49 40 -16 7 -28 5 -37 -6 -5 -7 -11 -23 -12 -39
-6 -49 -1 -93 15 -140 5 -15 15 -36 20 -45 2 -4 4 -7 4 -8 0 -1 22 -33 30 -42
42 -53 109 -94 177 -108 37 -8 92 -8 130 0 48 11 99 36 137 69 37 32 67 73 85
117 22 54 29 102 22 161 -3 30 -16 69 -32 102 -9 16 -25 41 -36 54 -38 45 -87
80 -138 98 -19 7 -48 14 -66 16 -4 0 -8 0 -9 1 -6 1 -49 1 -61 -1z M592 834
c-18 -1 -27 -2 -35 -4 -53 -11 -100 -33 -141 -66 -77 -61 -122 -163 -115 -260
4 -63 29 -127 67 -175 11 -14 38 -41 52 -51 38 -30 79 -50 125 -60 7 -2 17 -3
22 -4 5 -1 13 -2 17 -2 4 -1 16 -1 28 -1 48 0 93 10 135 31 16 8 21 10 38 21
36 25 64 53 88 90 25 37 42 82 49 130 1 9 1 18 1 38 0 63 -10 88 -33 88 -11 0
-23 -6 -44 -22 -32 -27 -38 -37 -41 -76 -4 -36 -14 -65 -34 -95 -42 -62 -117
-95 -189 -83 -50 9 -95 36 -124 76 -48 65 -51 150 -6 217 22 35 53 60 93 76
16 7 36 12 54 14 22 2 38 8 50 19 11 10 34 39 40 52 3 7 3 8 3 15 0 6 0 9 -1
12 -7 12 -21 17 -51 20 -12 1 -40 1 -48 0z" fill="#ffffff"/>
  <path d="M693 1635 c-4 0 -12 -2 -16 -3 -12 -2 -21 -4 -34 -7 -12 -3 -37 -11
-40 -13 -2 0 -7 -3 -13 -5 -6 -2 -12 -5 -13 -5 -1 -1 -10 -5 -19 -10 -10 -5
-19 -9 -21 -10 -2 -2 -6 -4 -10 -7 -18 -10 -45 -29 -60 -43 -17 -15 -40 -38
-50 -50 -1 -1 -5 -5 -8 -9 -2 -3 -6 -7 -7 -9 -1 -2 -3 -4 -3 -4 -1 -1 -16 -22
-17 -24 -1 -1 -3 -4 -5 -7 -21 -32 -39 -70 -50 -108 -10 -30 -12 -42 -8 -55 8
-32 45 -45 76 -26 3 2 9 6 13 11 9 9 13 16 17 32 10 33 21 61 40 93 4 7 19 27
26 37 35 44 81 79 132 101 20 8 47 17 63 20 28 4 37 8 46 18 8 8 11 13 14 21
3 8 4 23 2 31 -3 13 -12 24 -24 29 -7 4 -19 5 -31 2z M1177 1537 l-1 -2 2 1
c2 2 2 3 2 3 -1 0 -2 -1 -3 -2z M1385 1497 c2 0 6 0 8 0 2 0 0 1 -4 1 -4 0 -6
-1 -4 -1z M742 1471 c-2 0 -6 -1 -11 -2 -26 -6 -64 -22 -89 -37 -39 -24 -74
-56 -102 -93 -11 -15 -14 -19 -16 -24 -1 -2 -3 -5 -3 -6 -14 -21 -24 -43 -33
-71 -4 -11 -8 -27 -8 -31 0 -24 16 -42 38 -44 10 0 18 1 28 6 15 8 26 20 32
40 9 24 14 38 24 55 20 35 53 69 88 90 10 6 26 14 28 14 1 0 2 1 3 1 2 2 16 6
35 12 4 1 9 3 11 5 19 11 27 32 23 54 -3 13 -12 25 -25 30 -5 1 -20 2 -23 1z
M1425 1344 c0 -1 2 -2 2 -2 0 0 -1 1 -1 2 -1 1 -3 2 -3 2 0 0 1 -1 2 -2z
M1698 1337 c0 -2 0 -3 1 -2 0 1 0 3 0 3 -1 1 -1 0 -1 -1z M1075 1307 c0 -9 1
-13 1 -8 0 4 0 12 0 16 0 4 -1 0 -1 -8z M796 1314 c-18 -5 -33 -11 -49 -20
-13 -7 -27 -16 -35 -22 -7 -7 -19 -18 -26 -26 -13 -14 -14 -15 -23 -28 -4 -6
-8 -13 -9 -14 -5 -8 -16 -32 -23 -50 -3 -12 -4 -25 0 -34 10 -27 49 -30 74 -5
7 7 11 13 15 23 4 11 11 26 15 32 11 17 25 31 41 41 10 7 20 12 31 15 2 1 4 2
4 2 1 1 2 1 4 1 2 0 5 1 15 7 3 1 10 9 13 15 3 6 5 13 5 22 0 15 -8 28 -21 36
-9 5 -22 7 -31 5z M795 1126 l-1 -2 2 1 c2 2 2 3 2 3 -1 0 -2 -1 -3 -2z M1606
1084 l-8 -8 8 8 c8 8 9 9 9 9 0 0 -4 -4 -9 -9z M1345 995 c0 0 2 0 2 0 1 1 0
1 -1 1 -1 0 -2 0 -1 -1z M1414 995 c1 0 3 0 3 0 1 1 0 1 -1 1 -2 0 -3 0 -2 -1z
M773 847 c0 -4 1 -5 1 -3 0 2 0 4 0 6 -1 1 -1 0 -1 -3z M1385 836 c2 0 4 0 6
0 1 1 0 1 -3 1 -4 0 -5 -1 -3 -1z M390 743 l-2 -3 3 2 c3 3 3 4 3 4 0 0 -2 -1
-4 -3z M652 738 l-1 -2 2 1 c2 2 2 3 2 3 -1 0 -2 -1 -3 -2z M599 715 c0 0 2 0
2 0 1 1 0 1 -1 1 -1 0 -2 0 -1 -1z M1698 562 c0 -1 0 -2 1 -1 0 0 0 2 0 2 -1
1 -1 0 -1 -1z M300 542 c0 -3 0 -4 1 -3 0 2 0 4 0 5 -1 1 -1 0 -1 -2z M421
544 c0 -1 0 -2 1 -1 0 0 0 2 0 2 -1 1 -1 0 -1 -1z M923 542 c0 -2 0 -3 1 -2 0
1 0 3 0 3 -1 1 -1 0 -1 -1z M1075 541 c0 -3 0 -3 1 -2 0 1 0 3 0 4 -1 1 -1 0
-1 -2z M923 535 c0 -2 0 -3 1 -2 0 1 0 3 0 4 -1 1 -1 0 -1 -2z M300 504 c0 -2
0 -3 1 -2 0 1 0 3 0 4 -1 1 -1 0 -1 -2z M923 503 c0 -4 1 -5 1 -3 0 2 0 4 0 6
-1 1 -1 0 -1 -3z M1075 501 c0 -2 0 -3 1 -2 0 1 0 3 0 3 -1 1 -1 0 -1 -1z
M421 499 c0 -1 0 -2 1 -1 0 0 0 2 0 2 -1 1 -1 0 -1 -1z M471 393 c0 0 1 -2 3
-4 l4 -2 -3 3 c-3 3 -4 3 -4 3z M1521 387 l-1 -2 2 1 c2 2 2 3 2 3 -1 0 -2 -1
-3 -2z M1370 331 c1 0 3 0 3 0 1 1 0 1 -1 1 -2 0 -3 0 -2 -1z M407 288 c0 -1
2 -2 2 -2 0 0 -1 1 -1 2 -1 1 -3 2 -3 2 0 0 1 -1 2 -2z M604 210 c5 0 11 0 15
0 4 0 1 1 -7 1 -9 0 -12 -1 -8 -1z M1379 210 c5 0 15 0 20 0 6 0 1 1 -10 1
-11 0 -16 -1 -10 -1z" fill="#5b8def"/>
</svg>