<svg width="500" height="500" style="background:#0d1b2e" xmlns="http://www.w3.org/2000/svg" viewBox="616.41 538.93 767.06 767.06">
  <rect x="616.41" y="538.93" width="767.06" height="767.06" fill="#0d1b2e"/>
  <path d="M1110 1191 c-4 0 -13 -2 -19 -3 -44 -8 -96 -27 -136 -50 -47 -27 -92
-65 -125 -105 -26 -32 -39 -52 -56 -85 -16 -30 -27 -59 -35 -89 -7 -26 -4 -43
9 -57 10 -10 22 -15 37 -14 17 1 30 7 42 20 7 7 11 14 14 27 15 48 29 79 53
114 16 24 46 56 69 74 20 17 47 33 68 43 4 2 9 4 12 5 8 4 28 11 40 14 12 3
14 4 31 7 19 4 25 6 34 15 12 11 18 24 18 41 0 5 0 11 -1 14 -3 12 -11 22 -23
27 -5 3 -8 3 -15 4 -6 0 -12 -1 -17 -2z M1154 1026 c-46 -10 -94 -34 -132 -65
-10 -7 -40 -36 -48 -45 -10 -13 -25 -33 -31 -43 -2 -2 -3 -5 -4 -6 -18 -28
-41 -86 -41 -104 0 -22 12 -37 31 -43 17 -4 39 4 53 20 7 8 10 14 17 33 9 28
24 56 42 79 9 11 28 31 40 40 26 20 51 33 84 43 22 7 31 13 39 29 11 23 3 50
-19 60 -8 4 -20 5 -31 2z M1210 869 c-4 -1 -9 -2 -10 -3 -13 -5 -19 -7 -30
-13 -23 -11 -40 -24 -59 -43 -25 -26 -43 -52 -56 -84 -9 -23 -11 -35 -7 -47 5
-16 16 -24 35 -24 9 0 15 1 23 5 14 7 25 19 31 34 10 27 19 40 35 57 17 16 32
25 56 33 18 6 27 12 33 25 2 4 4 9 4 13 3 12 -2 27 -11 37 -12 11 -27 14 -44
10z" fill="#ffffff"/>
</svg>