<svg xmlns="http://www.w3.org/2000/svg" viewBox="0 0 2000 1846" width="500" height="461">
  <rect width="2000" height="1846" fill="#ffffff"/>
  <path d="M1356 1615 c-55 -5 -110 -26 -156 -61 -38 -29 -63 -58 -84 -97 -20
-38 -30 -66 -37 -113 -3 -19 -3 -56 0 -74 4 -24 7 -34 15 -41 12 -13 27 -10
54 11 20 16 32 29 38 41 2 6 6 18 6 27 2 13 5 32 7 42 17 65 66 118 129 138
18 7 33 9 54 10 26 1 42 -2 65 -9 57 -19 106 -68 124 -125 10 -32 12 -71 3
-103 -16 -65 -65 -117 -126 -137 -18 -6 -25 -8 -54 -12 -14 -2 -23 -5 -34 -11
-12 -7 -46 -49 -52 -65 -7 -17 2 -31 23 -37 24 -6 82 -5 123 3 31 6 74 24 106
45 50 34 94 88 115 142 8 21 16 49 20 73 4 16 5 61 2 81 -8 64 -40 131 -85
178 -23 24 -54 47 -85 63 -51 27 -109 37 -171 31z M1380 1356 c-2 -1 -7 -3 -9
-4 -5 -3 -35 -25 -39 -29 -1 -1 -6 -5 -10 -8 -11 -9 -36 -29 -41 -33 -10 -9
-39 -32 -47 -38 -5 -3 -10 -8 -12 -10 -10 -9 -16 -14 -29 -24 -8 -6 -17 -13
-20 -16 -3 -2 -12 -10 -20 -16 -8 -6 -18 -13 -22 -17 -8 -6 -15 -9 -24 -11 -3
0 -60 0 -127 0 -79 0 -126 0 -132 -1 -21 -2 -37 -10 -51 -24 -13 -13 -21 -30
-23 -49 -1 -7 -1 -56 -1 -133 0 -118 0 -124 -1 -129 -3 -7 -14 -22 -30 -44 -7
-7 -14 -17 -18 -21 -3 -5 -7 -9 -7 -10 -1 -1 -8 -10 -16 -21 -8 -11 -16 -21
-18 -23 -2 -2 -5 -6 -7 -9 -3 -3 -5 -6 -5 -6 0 0 -3 -5 -7 -9 -8 -12 -28 -38
-35 -47 -4 -4 -10 -12 -15 -18 -5 -7 -9 -12 -9 -13 -2 -1 -12 -14 -21 -27 -19
-26 -24 -36 -23 -50 2 -22 16 -39 38 -45 16 -4 29 1 51 20 4 3 8 7 8 7 2 2 16
13 28 23 8 6 17 14 20 16 3 3 9 8 14 12 11 8 18 13 46 37 21 18 32 27 52 42
18 13 19 14 25 19 23 19 32 26 39 29 5 2 6 3 114 3 97 0 110 0 115 -2 10 -2
11 -3 56 -39 34 -27 41 -33 48 -38 5 -4 9 -7 9 -8 1 0 17 -13 23 -18 5 -4 26
-22 26 -22 0 0 4 -3 9 -7 9 -7 27 -21 28 -22 0 0 4 -3 8 -6 3 -3 10 -9 15 -13
26 -21 35 -28 46 -32 7 -2 14 -3 22 -1 17 5 29 16 34 34 5 13 4 24 -4 39 -4 6
-21 30 -31 42 -15 18 -39 49 -48 61 -12 16 -14 19 -30 39 -7 10 -15 20 -17 22
-2 3 -7 10 -11 15 -5 6 -15 19 -23 30 -8 11 -20 27 -27 35 -13 18 -15 22 -17
30 -1 3 -1 41 -1 98 0 96 0 98 4 105 4 8 30 42 60 79 7 10 16 20 18 24 2 3 9
12 15 20 10 13 15 20 37 48 4 5 15 19 24 31 8 11 16 21 16 21 0 0 5 6 9 12 5
7 11 14 13 18 14 18 18 31 14 47 -3 9 -5 13 -9 18 -5 6 -7 8 -14 12 -12 7 -23
9 -33 5z M1374 835 c-7 0 -29 -2 -35 -4 -18 -3 -29 -9 -33 -19 -2 -6 -1 -16 3
-24 7 -15 35 -48 46 -57 13 -10 22 -13 54 -17 9 -1 20 -3 26 -5 35 -9 73 -32
96 -60 20 -23 31 -42 40 -69 12 -39 12 -80 -1 -117 -21 -61 -69 -107 -130
-125 -19 -6 -44 -8 -62 -8 -79 5 -145 54 -173 130 -5 14 -9 30 -11 54 -4 27
-7 37 -18 50 -9 9 -30 28 -43 36 -23 16 -41 10 -49 -16 -6 -16 -7 -30 -7 -62
-1 -31 0 -36 6 -62 8 -40 26 -81 48 -113 30 -43 64 -74 109 -98 37 -20 68 -30
108 -36 18 -2 63 -2 81 0 50 8 89 23 132 51 6 4 11 8 11 8 1 1 6 5 12 9 9 8
34 32 42 41 2 2 4 6 5 7 1 1 5 6 9 11 26 36 46 81 55 128 8 43 6 93 -6 136
-22 75 -63 133 -127 177 -46 31 -91 47 -149 53 -7 1 -31 2 -39 1z M587 833
c-29 -3 -48 -7 -75 -16 -105 -36 -180 -122 -204 -231 -6 -26 -7 -33 -6 -64 0
-28 0 -31 2 -44 7 -40 16 -66 33 -100 14 -28 31 -50 55 -74 14 -14 17 -17 30
-27 38 -29 82 -50 128 -60 11 -2 18 -3 36 -5 11 -1 50 0 63 1 20 3 37 7 54 12
58 18 113 55 151 102 35 45 57 94 67 153 2 15 2 67 0 84 -5 28 -12 41 -27 44
-11 3 -22 -2 -44 -20 -16 -12 -26 -22 -32 -31 -8 -12 -10 -17 -14 -53 -3 -26
-8 -44 -19 -65 -23 -46 -59 -79 -105 -96 -9 -4 -29 -9 -35 -10 -17 -3 -24 -3
-39 -3 -46 2 -88 18 -123 50 -7 6 -19 20 -23 25 -2 2 -4 5 -6 7 -12 17 -24 42
-29 66 -9 33 -7 74 6 108 10 30 32 62 56 83 21 17 50 33 77 40 8 3 24 6 37 7
10 2 12 2 18 4 13 3 26 11 36 22 18 20 32 41 36 52 2 8 2 9 1 16 -2 6 -8 12
-15 16 -15 7 -60 11 -90 7z" fill="#0d1b2e"/>
  <path d="M693 1635 c-30 -5 -41 -7 -52 -11 -83 -23 -151 -65 -211 -128 -27
-28 -51 -61 -69 -94 -4 -8 -15 -30 -15 -31 0 0 -1 -3 -3 -6 -7 -16 -16 -43
-22 -64 -3 -10 -3 -13 -3 -22 0 -13 2 -20 8 -28 9 -12 17 -16 31 -19 8 -1 10
-1 17 0 13 3 22 7 33 18 9 9 14 16 17 29 18 64 46 114 89 159 50 51 111 84
181 97 21 4 30 8 39 17 21 23 22 58 0 76 -10 8 -24 11 -40 7z M1361 1616 c1 0
3 0 4 0 1 1 0 1 -2 1 -2 0 -3 0 -2 -1z M1412 1616 c1 0 3 0 4 0 1 1 0 1 -2 1
-2 0 -3 0 -2 -1z M1349 1615 c0 0 2 0 2 0 1 1 0 1 -1 1 -1 0 -2 0 -1 -1z
M1425 1615 c0 0 2 0 2 0 1 1 0 1 -1 1 -1 0 -2 0 -1 -1z M1179 1537 l-2 -2 2 2
c2 1 3 2 3 3 0 0 -1 0 -3 -3z M1608 1526 c5 -6 10 -10 10 -10 0 0 -4 4 -9 10
-5 5 -10 9 -10 9 0 0 4 -4 9 -9z M1156 1516 l-3 -4 4 3 c4 4 4 5 4 5 0 0 -2
-2 -5 -4z M1367 1496 c0 0 2 0 2 0 1 1 0 1 -1 1 -1 0 -2 0 -1 -1z M1408 1496
c1 0 3 0 3 0 1 1 0 1 -1 1 -2 0 -3 0 -2 -1z M1358 1495 c0 0 2 0 2 0 1 1 0 1
-1 1 -1 0 -2 0 -1 -1z M737 1470 c-22 -5 -55 -17 -76 -28 -16 -8 -39 -23 -48
-30 -1 0 -5 -4 -10 -8 -23 -18 -42 -38 -61 -63 -10 -13 -13 -18 -18 -25 -1 -3
-3 -6 -4 -7 -14 -23 -27 -53 -37 -85 -5 -16 -3 -33 5 -45 7 -9 20 -16 33 -16
9 0 15 1 25 6 16 8 26 20 33 42 12 35 25 60 47 87 30 37 70 65 114 78 5 2 13
4 16 5 15 5 28 17 32 31 6 17 2 37 -9 48 -7 7 -16 11 -27 12 -5 0 -11 -1 -15
-2z M1260 1450 l-1 -2 2 1 c2 2 2 3 2 3 -1 0 -2 -1 -3 -2z M1511 1452 c0 0 1
-2 3 -4 l4 -2 -3 3 c-3 3 -4 3 -4 3z M1529 1434 c1 -2 3 -3 3 -3 0 0 -1 1 -2
3 -1 1 -3 2 -3 2 0 0 1 -1 2 -2z M1243 1433 l-1 -2 2 1 c1 1 2 2 2 3 0 0 -1 0
-3 -2z M1388 1358 c2 0 4 0 6 0 1 1 0 1 -3 1 -3 0 -4 0 -3 -1z M1077 1338 c0
-1 0 -2 1 -1 0 0 0 2 0 2 -1 1 -1 0 -1 -1z M1076 1327 c0 -3 0 -3 1 -2 0 1 0
3 0 4 -1 1 -1 0 -1 -2z M1578 1326 c0 -2 0 -3 1 -2 0 1 0 3 0 4 -1 1 -1 0 -1
-2z M1194 1320 c0 -2 0 -3 1 -2 0 1 0 3 0 3 -1 1 -1 0 -1 -1z M1699 1307 c0
-8 1 -11 1 -7 0 4 0 10 0 14 0 3 -1 0 -1 -7z M1437 1314 c0 -1 0 -2 1 -1 0 0
0 2 0 2 -1 1 -1 0 -1 -1z M795 1313 c-10 -2 -12 -3 -22 -6 -15 -6 -38 -19 -48
-26 -19 -14 -39 -34 -53 -50 -7 -10 -20 -29 -25 -41 -5 -9 -12 -25 -16 -36 -3
-12 -4 -25 0 -34 8 -21 34 -28 58 -16 6 3 10 6 16 12 9 9 11 12 16 25 7 20 19
38 34 53 17 17 32 26 54 33 16 5 24 10 30 19 11 14 12 35 2 50 -10 15 -28 22
-46 17z M1579 1306 c0 -5 1 -7 1 -5 0 3 0 7 0 10 0 2 -1 0 -1 -5z M1193 1311
c0 -1 0 -2 1 -1 0 0 0 2 0 2 -1 1 -1 0 -1 -1z M1437 1304 c0 -1 0 -2 1 -1 0 0
0 2 0 2 -1 1 -1 0 -1 -1z M1293 1293 l-1 -2 2 1 c2 2 2 3 2 3 -1 0 -2 -1 -3
-2z M1076 1286 c0 -2 0 -3 1 -2 0 1 0 3 0 4 -1 1 -1 0 -1 -2z M1286 1287 l-1
-2 2 1 c2 2 2 3 2 3 -1 0 -2 -1 -3 -2z M1578 1287 c0 -2 0 -3 1 -2 0 1 0 3 0
3 -1 1 -1 0 -1 -1z M1248 1256 l-1 -2 2 1 c2 2 2 3 2 3 -1 0 -2 -1 -3 -2z
M1213 1228 l-1 -2 2 1 c1 1 2 2 2 3 0 0 -1 0 -3 -2z M1201 1218 l-1 -2 2 1 c2
2 2 3 2 3 -1 0 -2 -1 -3 -2z M1173 1195 l-2 -2 2 2 c3 2 3 3 3 3 -1 0 -2 -1
-3 -3z M1520 1169 l-6 -7 7 6 c6 7 7 8 7 8 0 0 -4 -3 -8 -7z M1130 1162 l-1
-2 2 1 c2 2 2 3 2 3 -1 0 -2 -1 -3 -2z M907 1150 c29 0 77 0 106 0 30 0 6 1
-53 1 -59 0 -83 -1 -53 -1z M1088 1150 c2 0 6 0 8 0 2 0 0 1 -4 1 -5 0 -7 -1
-4 -1z M1621 1102 l-1 -2 2 1 c1 1 2 2 2 3 0 0 -1 0 -3 -2z M1611 1090 l-3 -3
3 3 c4 3 4 4 4 4 0 0 -2 -2 -4 -4z M1588 1069 l-1 -2 2 1 c1 1 2 2 2 3 0 0 -1
0 -3 -2z M772 966 c0 -58 1 -81 1 -52 0 29 0 75 0 104 0 28 -1 5 -1 -52z
M1581 1063 l-1 -2 2 1 c2 2 2 3 2 3 -1 0 -2 -1 -3 -2z M1431 997 c0 0 2 0 2 0
1 1 0 1 -1 1 -1 0 -2 0 -1 -1z M1368 994 c6 0 16 0 22 0 6 0 2 1 -10 1 -13 0
-18 -1 -12 -1z M1373 835 c2 0 4 0 5 0 1 1 0 1 -2 1 -3 0 -4 0 -3 -1z M1399
835 c2 0 4 0 5 0 1 1 0 1 -2 1 -3 0 -4 0 -3 -1z M591 834 c1 0 3 0 4 0 1 1 0
1 -2 1 -3 0 -3 0 -2 -1z M632 834 c1 0 3 0 4 0 1 1 0 1 -2 1 -2 0 -3 0 -2 -1z
M1356 834 c1 0 3 0 3 0 1 1 0 1 -1 1 -2 0 -3 0 -2 -1z M1416 834 c1 0 3 0 3 0
1 1 0 1 -1 1 -2 0 -3 0 -2 -1z M580 833 c0 0 2 0 2 0 1 1 0 1 -1 1 -1 0 -2 0
-1 -1z M1310 820 l-2 -3 3 2 c3 3 3 4 3 4 0 0 -2 -1 -4 -3z M1574 773 c0 -1 2
-2 2 -2 0 0 -1 1 -1 2 -1 1 -3 2 -3 2 0 0 1 -1 2 -2z M405 756 l-1 -2 2 1 c2
2 2 3 2 3 -1 0 -2 -1 -3 -2z M1595 756 c0 -1 2 -2 2 -2 0 0 -1 1 -1 2 -1 1 -3
2 -3 2 0 0 1 -1 2 -2z M1340 745 c1 -2 3 -3 3 -3 0 0 -1 1 -2 3 -1 1 -3 2 -3
2 0 0 1 -1 2 -2z M390 742 l-2 -3 3 2 c3 3 3 4 3 4 0 0 -2 -1 -4 -3z M1607
745 c0 0 1 -2 3 -4 l4 -2 -3 3 c-3 3 -4 3 -4 3z M1346 738 c2 -2 4 -4 4 -4 0
0 -1 2 -3 4 -2 1 -4 3 -4 3 0 0 1 -2 3 -3z M378 728 l-2 -2 2 2 c3 2 3 3 3 3
-1 0 -2 -1 -3 -3z M1622 729 c1 -2 3 -3 3 -3 0 0 -1 1 -2 3 -1 1 -3 2 -3 2 0
0 1 -1 2 -2z M590 714 c0 0 2 0 2 0 1 1 0 1 -1 1 -1 0 -2 0 -1 -1z M952 678
c28 0 73 0 100 0 27 0 5 1 -50 1 -55 0 -78 -1 -50 -1z M1513 667 c0 -1 2 -2 2
-2 0 0 -1 1 -1 2 -1 1 -3 2 -3 2 0 0 1 -1 2 -2z M484 666 l-1 -2 2 1 c2 2 2 3
2 3 -1 0 -2 -1 -3 -2z M850 653 l-1 -2 2 1 c2 2 2 3 2 3 -1 0 -2 -1 -3 -2z
M468 650 l-1 -2 2 1 c1 1 2 2 2 3 0 0 -1 0 -3 -2z M1531 649 c0 -1 2 -2 2 -2
0 0 -1 1 -1 2 -1 1 -3 2 -3 2 0 0 1 -1 2 -2z M888 609 c1 0 3 0 4 0 1 1 0 1
-2 1 -2 0 -3 0 -2 -1z M1092 602 l-2 -3 3 2 c3 3 3 4 3 4 0 0 -2 -1 -4 -3z
M907 602 c0 -1 2 -2 2 -2 0 0 -1 1 -1 2 -1 1 -3 2 -3 2 0 0 1 -1 2 -2z M1396
592 c0 -1 2 -2 2 -2 0 0 -1 1 -1 2 -1 1 -3 2 -3 2 0 0 1 -1 2 -2z M1161 579
c0 -1 2 -2 2 -2 0 0 -1 1 -1 2 -1 1 -3 2 -3 2 0 0 1 -1 2 -2z M827 570 l-6 -7
7 6 c6 7 7 8 7 8 0 0 -4 -3 -8 -7z M921 561 c0 -1 0 -2 1 -1 0 0 0 2 0 2 -1 1
-1 0 -1 -1z M302 560 c0 -1 0 -2 1 -1 0 0 0 2 0 2 -1 1 -1 0 -1 -1z M1077 558
c0 -1 0 -2 1 -1 0 0 0 2 0 2 -1 1 -1 0 -1 -1z M1699 549 c0 -3 0 -3 1 -2 0 1
0 3 0 4 -1 1 -1 0 -1 -2z M710 541 l-1 -2 2 1 c2 2 2 3 2 3 -1 0 -2 -1 -3 -2z
M420 538 c0 -2 0 -3 1 -2 0 1 0 3 0 4 -1 1 -1 0 -1 -2z M701 533 l-1 -2 2 1
c2 2 2 3 2 3 -1 0 -2 -1 -3 -2z M1579 522 c0 -7 1 -9 1 -6 0 3 0 8 0 11 0 3
-1 1 -1 -5z M1700 523 c0 -4 1 -6 1 -4 0 2 0 6 0 8 0 2 -1 0 -1 -4z M560 520
c0 -4 1 -5 1 -3 0 2 0 4 0 6 -1 1 -1 0 -1 -3z M805 521 c0 -1 0 -2 1 -1 0 0 0
2 0 2 -1 1 -1 0 -1 -1z M1193 520 c0 -1 0 -2 1 -1 0 0 0 2 0 2 -1 1 -1 0 -1
-1z M1438 516 c0 -2 0 -3 1 -2 0 1 0 3 0 3 -1 1 -1 0 -1 -1z M804 511 c0 -2 0
-3 1 -2 0 1 0 3 0 4 -1 1 -1 0 -1 -2z M1194 510 c0 -2 0 -3 1 -2 0 1 0 3 0 3
-1 1 -1 0 -1 -1z M666 505 l-1 -2 2 1 c1 1 2 2 2 3 0 0 -1 0 -3 -2z M420 504
c0 -1 0 -2 1 -1 0 0 0 2 0 2 -1 1 -1 0 -1 -1z M1334 503 c0 -1 2 -2 2 -2 0 0
-1 1 -1 2 -1 1 -3 2 -3 2 0 0 1 -1 2 -2z M1699 498 c0 -3 0 -3 1 -2 0 1 0 3 0
4 -1 1 -1 0 -1 -2z M1076 495 c0 -2 0 -3 1 -2 0 1 0 3 0 3 -1 1 -1 0 -1 -1z
M652 492 l-2 -2 2 2 c2 1 3 2 3 3 0 0 -1 0 -3 -3z M302 486 c0 -1 0 -2 1 -1 0
0 0 2 0 2 -1 1 -1 0 -1 -1z M1423 484 l-3 -4 4 3 c2 3 4 5 4 5 0 0 -1 0 -5 -4z
M1077 485 c0 -2 0 -3 1 -2 0 1 0 3 0 3 -1 1 -1 0 -1 -1z M606 469 c1 0 3 0 4
0 1 1 0 1 -2 1 -2 0 -3 0 -2 -1z M467 397 c0 -1 2 -2 2 -2 0 0 -1 1 -1 2 -1 1
-3 2 -3 2 0 0 1 -1 2 -2z M755 396 l-1 -2 2 1 c1 1 2 2 2 3 0 0 -1 0 -3 -2z
M1529 394 l-2 -2 2 2 c2 1 3 2 3 3 0 0 -1 0 -3 -3z M1515 381 l-2 -3 3 2 c3 3
3 4 3 4 0 0 -2 -1 -4 -3z M486 378 c0 -1 2 -2 2 -2 0 0 -1 1 -1 2 -1 1 -3 2
-3 2 0 0 1 -1 2 -2z M737 378 l-1 -2 2 1 c1 1 2 2 2 3 0 0 -1 0 -3 -2z M1262
377 c0 -1 2 -2 2 -2 0 0 -1 1 -1 2 -1 1 -3 2 -3 2 0 0 1 -1 2 -2z M360 339 c1
-2 2 -3 3 -3 0 0 -1 1 -2 3 -1 2 -2 3 -3 3 0 0 1 -1 2 -3z M639 332 c0 0 2 0
2 0 1 1 0 1 -1 1 -1 0 -2 0 -1 -1z M846 318 l-1 -2 2 1 c1 1 2 2 2 3 0 0 -1 0
-3 -2z M1620 315 l-2 -2 2 2 c2 1 3 2 3 3 0 0 -1 0 -3 -3z M383 312 c4 -5 5
-5 5 -5 0 0 -2 3 -5 5 l-4 5 4 -5z M832 303 c-4 -5 -7 -8 -7 -8 0 0 4 3 8 8 4
4 7 7 7 7 0 0 -4 -3 -8 -7z M1166 303 c3 -4 6 -6 6 -6 0 0 -2 2 -5 6 -3 3 -6
5 -6 5 0 0 2 -2 5 -5z M398 297 c2 -2 4 -4 4 -4 0 0 -1 2 -3 4 -3 2 -5 4 -5 4
0 0 1 -2 4 -4z M1592 288 l-1 -2 2 1 c2 2 2 3 2 3 -1 0 -2 -1 -3 -2z M653 213
c0 0 2 0 2 0 1 1 0 1 -1 1 -1 0 -2 0 -1 -1z M577 212 c0 0 2 0 2 0 1 1 0 1 -1
1 -1 0 -2 0 -1 -1z M644 212 c0 0 2 0 2 0 1 1 0 1 -1 1 -1 0 -2 0 -1 -1z
M1351 212 c0 0 2 0 2 0 1 1 0 1 -1 1 -1 0 -2 0 -1 -1z M1425 212 c0 0 2 0 2 0
1 1 0 1 -1 1 -1 0 -2 0 -1 -1z M589 211 c1 0 3 0 4 0 1 1 0 1 -2 1 -2 0 -3 0
-2 -1z M630 211 c1 0 3 0 4 0 1 1 0 1 -2 1 -2 0 -3 0 -2 -1z M1363 211 c1 0 3
0 4 0 1 1 0 1 -2 1 -3 0 -3 0 -2 -1z M1412 211 c0 0 2 0 2 0 1 1 0 1 -1 1 -1
0 -2 0 -1 -1z" fill="#5b8def"/>
</svg>