<svg xmlns="http://www.w3.org/2000/svg" viewBox="0 0 2000 1846" width="500" height="461">
  <rect width="2000" height="1846" fill="#0d1b2e"/>
  <path d="M701 1636 c-2 -1 0 -1 5 -1 17 0 31 -8 39 -22 3 -7 5 -18 5 -25 -1
-5 -1 -6 0 -4 2 5 1 17 -3 26 -4 8 -11 17 -15 19 -1 0 -2 1 -1 1 0 1 -2 1 -4
2 -2 1 -4 2 -4 2 0 2 -18 3 -22 2z M694 1635 c-2 0 -4 -1 -5 -1 -2 0 -3 0 -3
-1 1 0 12 1 12 2 0 1 -2 1 -4 0z M676 1632 c-1 0 -4 -1 -7 -1 -3 -1 -9 -2 -13
-3 -4 -1 -11 -3 -16 -4 -8 -2 -18 -6 -12 -5 1 1 7 2 12 4 11 3 13 3 27 6 6 1
12 3 14 3 3 1 3 1 1 1 -2 0 -4 -1 -6 -1z M622 1618 c-1 0 -4 -1 -8 -2 -4 -1
-8 -3 -8 -3 -3 -2 -18 -7 -19 -6 -1 0 -1 0 -1 -1 1 0 1 -1 0 -1 -1 0 -10 -4
-10 -5 0 0 7 3 15 6 8 3 19 7 24 9 10 3 11 4 9 4 -1 0 -2 0 -2 -1z M1366 1615
c0 -1 -6 -1 -14 -2 -15 -1 -32 -5 -47 -9 -7 -2 -12 -3 -13 -4 -3 0 -20 -7 -24
-9 -12 -5 -16 -7 -17 -7 -1 0 -2 -1 -4 -2 -1 -1 -5 -4 -10 -6 -14 -8 -17 -10
-19 -12 -2 -1 -4 -2 -5 -3 -3 -1 -7 -4 -20 -15 -10 -7 -9 -7 -22 -19 -12 -10
-23 -22 -29 -30 -2 -4 -5 -7 -6 -9 -1 -1 -2 -2 -2 -2 0 -1 -2 -4 -5 -8 -3 -4
-7 -11 -9 -15 -2 -4 -4 -7 -5 -8 0 -1 -1 -2 -1 -3 0 -1 -1 -3 -2 -4 -1 -1 -2
-4 -3 -6 -1 -2 -3 -6 -4 -9 -6 -12 -11 -25 -13 -32 -1 -4 -3 -10 -4 -13 -1 -3
-2 -6 -2 -8 0 -1 -1 -6 -2 -10 -2 -7 -3 -14 -6 -34 -1 -5 -1 -19 -1 -31 0 -21
0 -26 3 -45 1 -9 4 -19 5 -20 1 -1 1 -2 1 -3 0 -1 2 -4 4 -7 6 -7 11 -10 20
-11 7 0 8 0 17 4 5 3 10 6 11 7 1 1 2 2 3 2 0 0 1 0 1 1 1 1 3 3 11 9 3 2 6 5
18 16 5 5 14 18 17 26 3 8 3 10 6 29 0 7 1 15 2 17 0 1 1 5 2 8 0 4 5 23 7 28
1 1 3 6 5 13 3 6 6 12 7 14 2 3 3 5 3 6 0 0 0 1 1 1 0 0 4 6 8 12 7 11 10 14
23 27 6 7 15 15 21 19 3 2 5 4 5 4 0 0 3 2 5 3 2 2 7 4 10 6 6 4 22 11 23 11
1 0 4 1 7 3 4 1 9 3 12 3 3 1 6 1 6 2 4 3 27 6 46 6 26 0 44 -3 62 -10 2 -1 5
-2 5 -2 1 0 23 -10 24 -11 0 0 2 -1 4 -2 8 -5 21 -14 29 -21 7 -6 15 -14 17
-17 1 -1 3 -2 4 -3 1 -1 3 -4 5 -7 2 -2 5 -6 6 -7 2 -2 3 -4 3 -4 0 -1 1 -3 3
-5 4 -5 17 -29 17 -32 0 -1 0 -2 1 -2 0 -1 4 -10 5 -15 1 -2 1 -5 2 -7 8 -28
7 -69 -1 -98 -4 -13 -11 -30 -15 -36 -1 -2 -2 -3 -2 -4 0 -1 -1 -2 -2 -4 -1
-1 -2 -3 -3 -4 -1 -3 -6 -10 -10 -14 0 -1 -1 -2 -1 -3 0 0 -1 -2 -3 -4 -2 -2
-5 -6 -7 -8 -2 -2 -5 -5 -6 -6 -1 -2 -3 -3 -4 -4 -8 -9 -14 -14 -16 -14 0 0
-1 -1 -2 -1 0 -1 -3 -3 -5 -5 -2 -1 -5 -3 -5 -3 -1 -1 -20 -12 -22 -13 -2 0
-5 -1 -7 -3 -7 -2 -13 -5 -18 -6 -3 -1 -5 -2 -6 -2 -4 -2 -18 -5 -25 -6 -31
-4 -42 -7 -53 -14 -6 -3 -14 -10 -17 -14 -1 -1 -2 -2 -4 -4 -1 -1 -3 -3 -4 -5
-1 -2 -3 -4 -3 -4 -1 -1 -15 -20 -19 -25 -6 -10 -9 -21 -8 -27 1 -10 9 -18 21
-22 13 -4 17 -4 52 -4 40 0 60 1 88 9 19 4 51 17 51 19 0 1 1 1 1 1 4 0 31 14
31 16 0 1 1 1 1 1 1 0 14 8 16 10 0 0 2 2 4 4 6 4 7 4 14 10 3 3 7 6 9 8 5 3
21 21 28 30 3 2 5 5 6 7 4 3 16 20 16 21 0 1 0 1 1 1 0 0 1 1 1 3 1 1 1 2 2 2
0 0 3 4 6 8 2 4 5 8 6 9 0 1 1 2 1 2 0 1 2 4 4 8 1 4 3 8 3 9 0 0 0 1 1 1 1 0
1 1 1 2 0 0 0 2 1 3 2 4 7 15 7 17 0 1 1 3 2 6 1 2 2 5 2 7 1 2 2 5 3 7 3 7 9
34 12 56 3 18 2 60 -1 80 -2 14 -8 39 -10 42 -1 1 -2 6 -4 10 -3 10 -6 18 -7
21 -2 4 -13 27 -13 28 0 1 -1 2 -2 3 -1 1 -3 4 -5 8 -2 3 -4 7 -6 9 -2 2 -3 4
-3 4 0 1 -5 8 -11 17 -3 3 -5 6 -5 7 0 0 -1 2 -3 3 -3 3 -7 8 -12 14 -4 4 -20
19 -25 23 -2 2 -6 5 -8 7 -2 1 -6 5 -10 7 -3 2 -6 5 -6 5 0 0 -1 1 -3 2 -2 2
-7 5 -12 8 -9 6 -15 9 -29 16 -14 7 -16 8 -32 14 -3 1 -18 5 -26 7 -10 3 -24
5 -38 7 -10 1 -59 3 -60 2z M559 1593 c-12 -6 -23 -12 -18 -11 1 1 33 17 34
18 2 1 -4 -1 -16 -7z M534 1579 c-2 -1 -4 -2 -5 -2 0 0 -1 -1 -2 -1 -1 -1 -2
-2 -4 -2 -1 -1 -3 -2 -4 -4 -2 -1 -4 -2 -4 -2 -1 0 -2 0 -2 -1 0 0 -2 -2 -5
-4 -3 -2 -5 -4 -6 -4 0 -2 1 -1 9 5 3 2 11 7 17 10 6 4 11 7 11 8 0 0 -2 0 -5
-3z M746 1571 c-1 -5 -2 -8 -2 -7 1 0 2 0 2 -1 1 -1 1 -1 0 1 0 2 1 5 2 8 0 3
1 5 1 6 0 0 -2 -3 -3 -7z M499 1564 c-1 -1 0 -1 1 -1 0 0 1 0 1 1 -1 1 -1 1
-1 1 -1 0 -1 0 -1 -1z M738 1555 c-2 -3 -6 -7 -9 -9 -2 -2 -4 -4 -3 -4 2 0 11
10 14 15 3 4 2 4 -2 -2z M499 1557 c-2 -1 -4 -3 -7 -5 -4 -3 -5 -3 -10 -8 -2
-1 -5 -3 -6 -3 -1 -1 -2 -2 -2 -3 0 0 0 -1 -1 -1 0 0 -2 -1 -4 -3 -5 -5 -10
-9 -10 -9 -1 0 -4 -3 -8 -7 -8 -7 -11 -10 -12 -10 -1 0 -1 0 -1 -1 1 -1 -4 -6
-5 -6 -1 0 -1 0 -1 -1 0 -1 -5 -6 -6 -6 0 0 -2 -2 -4 -5 -2 -3 -5 -6 -6 -7 -1
-1 -2 -3 -3 -4 -1 -1 -2 -2 -2 -1 -1 0 -1 -1 -2 -2 -1 -3 -9 -14 -10 -13 0 0
-1 -2 -2 -4 -2 -4 0 -2 5 4 18 25 56 63 86 86 11 8 14 10 13 10 0 0 -1 -1 -2
-1z M721 1540 c-2 -1 -3 -1 -2 -2 1 0 2 1 3 2 3 2 3 2 -1 0z M714 1537 c-1 0
-5 -1 -8 -2 -7 -1 -7 -1 -4 -2 1 -1 3 0 5 1 2 0 5 1 7 2 1 0 3 1 3 1 0 1 -1 1
-3 0z M694 1532 c0 -1 1 -1 2 0 0 0 1 0 1 1 0 0 -1 0 -1 0 -1 0 -2 0 -2 -1z
M690 1531 c0 0 2 0 2 0 1 1 0 1 -1 1 -1 0 -2 0 -1 -1z M678 1529 c-3 0 -7 -1
-9 -2 -2 0 -7 -2 -11 -3 -5 -1 -9 -3 -9 -3 -1 -1 -1 -1 1 -1 1 1 3 1 4 2 1 0
6 1 11 2 4 2 11 4 15 5 8 2 7 3 -2 0z M634 1516 c-6 -3 -11 -5 -12 -5 -1 -2 3
-1 6 1 2 1 6 2 9 3 3 1 7 2 8 3 3 3 1 2 -11 -2z M603 1502 c-9 -5 -16 -9 -16
-10 0 -1 0 -1 -1 -1 -2 2 -33 -19 -46 -31 -16 -13 -28 -25 -41 -40 -11 -14
-25 -32 -23 -32 0 0 1 1 2 3 1 2 2 3 3 2 1 0 1 0 1 1 -1 2 5 11 7 10 0 0 1 0
1 1 0 2 0 3 4 7 2 2 4 5 4 5 0 0 2 3 4 5 3 2 6 5 7 7 2 2 4 4 4 3 1 0 1 0 1 1
-1 0 0 2 1 3 2 1 4 4 7 6 2 3 5 5 6 6 1 0 2 1 2 1 0 1 2 3 5 5 3 3 7 6 8 7 5
4 21 16 25 18 2 1 4 3 4 4 1 0 2 1 4 1 1 0 3 1 3 2 1 1 2 2 3 2 1 0 1 1 0 1 0
1 0 1 1 1 1 -1 3 0 5 2 1 1 8 5 16 9 15 7 18 9 16 9 -1 0 -8 -4 -17 -8z M741
1471 c-2 -1 -3 -1 -3 -1 0 0 5 0 12 0 11 0 12 -1 18 -3 7 -4 16 -12 19 -19 2
-5 3 -6 3 -4 0 4 -13 21 -16 21 -1 0 -2 1 -4 2 -1 1 -4 2 -5 2 -6 2 -21 3 -24
2z M727 1468 c-2 -1 -5 -2 -8 -3 -3 -1 -7 -2 -10 -3 -2 -1 -4 -2 -5 -2 0 0 -2
0 -3 0 -3 0 -4 0 -4 -1 0 -1 -2 -2 -6 -3 -3 -2 -5 -3 -6 -3 0 -1 3 0 6 1 13 5
34 12 44 14 1 1 0 1 -2 1 -2 0 -5 -1 -6 -1z M391 1450 c-1 -2 -4 -5 -5 -7 -2
-2 -3 -3 -2 -3 0 0 -1 -1 -2 -2 -1 -1 -3 -4 -3 -6 -1 -2 -2 -3 -3 -3 -1 0 -1
-1 -2 -2 0 -2 -1 -3 -1 -3 -1 0 -1 -1 -1 -1 0 -1 -1 -3 -2 -4 -1 -2 -2 -3 -1
-3 0 0 2 2 4 5 5 8 15 23 19 28 2 3 3 5 2 5 0 0 -2 -2 -3 -4z M681 1452 c-2
-1 -1 -2 2 -1 0 0 1 1 0 1 0 1 -1 0 -2 0z M671 1447 c-4 -1 -8 -4 -10 -5 -2
-1 -4 -2 -5 -2 -1 0 -2 -1 -3 -2 -1 -1 -3 -2 -4 -3 -1 0 5 2 14 7 9 4 16 7 16
8 1 1 -2 0 -8 -3z M791 1436 c0 -3 1 -6 1 -7 1 -1 1 1 0 4 0 3 -1 6 -1 7 0 1
-1 -1 0 -4z M642 1436 c0 -1 1 -1 2 0 0 0 1 0 1 1 0 0 -1 0 -1 0 -1 0 -2 0 -2
-1z M643 1432 c-1 -1 -4 -2 -5 -3 -2 0 -6 -2 -9 -5 -4 -3 -7 -6 -8 -6 -2 -1
-3 -2 -3 -2 -2 -2 -7 -5 -8 -4 -1 0 -1 0 -1 -1 1 0 -1 -2 -4 -5 -2 -2 -7 -6
-11 -9 -3 -3 -7 -5 -8 -5 0 0 -1 0 -1 -1 1 -1 -1 -3 -4 -6 -3 -2 -8 -7 -11
-11 -4 -3 -9 -9 -11 -11 -3 -3 -5 -5 -4 -5 0 0 0 -1 -1 -1 -1 -1 -2 -2 -2 -2
-1 0 -2 0 -2 -1 0 -1 -1 -4 -3 -5 -2 -2 -3 -4 -3 -5 0 0 2 2 5 5 14 17 39 42
57 57 6 4 29 20 40 27 1 0 1 1 1 1 -1 0 -3 -1 -4 -2z M791 1421 c-1 -11 -4
-18 -11 -27 -7 -9 -14 -13 -36 -19 -8 -2 -12 -5 -6 -3 2 0 5 1 6 1 1 1 5 2 9
3 9 3 15 6 20 10 7 6 10 9 12 13 1 2 2 4 3 4 1 1 5 16 5 20 0 5 -1 4 -2 -2z
M367 1413 c-6 -9 -7 -11 -7 -12 0 -2 2 1 6 8 3 6 3 8 1 4z M358 1398 c0 -1 -3
-6 -6 -11 -3 -8 -5 -10 -5 -8 -1 1 -1 1 -1 0 0 -1 0 -2 1 -3 0 -2 2 1 7 10 6
12 7 15 4 12z M470 1380 c-7 -10 -7 -11 -6 -11 2 0 4 3 4 6 0 1 1 2 1 3 2 2 6
9 6 9 -1 0 -3 -3 -5 -7z M345 1372 c0 0 -1 -1 -1 -2 0 -1 -1 -4 -3 -8 -2 -3
-3 -6 -3 -7 0 -1 -1 -2 -1 -4 -1 -1 -2 -2 -2 -3 0 -1 -1 -4 -2 -7 -1 -2 -2 -4
-2 -5 1 0 3 6 6 13 3 7 6 15 7 18 2 3 3 6 3 6 0 0 -1 0 -2 -1z M726 1369 c-5
-2 -8 -4 -7 -4 0 0 3 1 5 2 2 1 5 2 7 2 2 0 3 1 3 2 0 0 0 1 0 1 0 0 -4 -1 -8
-3z M461 1366 c-3 -4 -19 -37 -19 -38 0 -2 3 2 4 6 1 2 2 4 3 4 0 0 1 1 1 2 0
1 2 5 4 9 1 3 3 7 3 8 0 0 1 1 1 2 2 2 5 8 5 9 -1 0 -1 -1 -2 -2z M713 1364
c-1 -1 -2 -2 -1 -2 0 0 2 1 3 2 1 0 2 1 2 1 -1 0 -3 -1 -4 -1z M703 1359 c-8
-4 -11 -6 -14 -8 -4 -3 -1 -2 4 1 2 1 6 4 10 5 3 2 6 4 7 4 0 1 0 1 -7 -2z
M1384 1355 c-4 -1 -11 -3 -11 -4 0 0 -2 -1 -3 -2 -2 -1 -4 -1 -4 -2 0 0 -2 -2
-4 -3 -2 -1 -4 -3 -5 -4 -1 -1 -3 -2 -4 -2 0 0 -1 0 -1 -1 0 0 -2 -2 -5 -4 -3
-2 -5 -3 -5 -4 0 0 -1 -1 -2 -2 -2 0 -6 -4 -16 -13 -3 -2 -6 -5 -8 -6 -2 -1
-4 -3 -5 -4 -1 -1 -3 -3 -5 -4 -2 -1 -5 -3 -6 -5 -8 -6 -16 -13 -17 -14 -2 -1
-4 -3 -7 -5 -2 -2 -4 -4 -5 -4 0 0 -1 0 -1 -1 0 0 -2 -2 -4 -3 -2 -2 -5 -4 -6
-5 -9 -9 -25 -21 -27 -21 0 0 -1 0 -1 -1 0 0 -2 -2 -4 -3 -2 -2 -7 -6 -10 -9
-4 -4 -8 -7 -9 -8 -2 -1 -3 -2 -4 -3 -1 -1 -2 -2 -2 -2 -1 0 -3 -1 -5 -3 -3
-3 -10 -8 -12 -10 -2 -1 -13 -10 -18 -15 -1 -1 -5 -4 -7 -5 -3 -2 -5 -4 -6 -5
-1 0 -2 -1 -2 -1 -1 0 -2 -1 -3 -2 -1 -1 -4 -3 -6 -6 -3 -2 -6 -4 -7 -5 -1 0
-3 -2 -5 -4 -2 -1 -4 -3 -4 -3 0 -1 -3 -2 -6 -4 -11 -5 -11 -5 -148 -5 -111 0
-126 0 -133 -2 -5 0 -10 -2 -12 -3 -1 0 -3 -1 -4 -1 -1 0 -17 -8 -17 -9 0 0
-3 -2 -5 -4 -11 -8 -22 -24 -26 -37 -4 -14 -4 -16 -4 -125 0 -58 0 -113 1
-124 0 -11 -1 -23 -1 -26 -2 -7 -10 -22 -19 -31 -1 -2 -3 -4 -3 -6 -1 -1 -3
-4 -5 -6 -2 -2 -5 -6 -7 -9 -3 -3 -8 -9 -11 -13 -3 -4 -6 -8 -6 -8 0 0 -2 -2
-3 -3 -1 -2 -3 -4 -4 -5 0 -2 -4 -6 -7 -10 -3 -4 -6 -8 -7 -10 -3 -3 -13 -17
-14 -18 -2 -2 -15 -19 -19 -24 -3 -4 -5 -7 -5 -7 0 0 -2 -2 -3 -4 -1 -2 -5 -7
-9 -12 -9 -11 -10 -13 -14 -18 -2 -2 -4 -5 -4 -5 0 0 -2 -2 -3 -4 -2 -2 -4 -5
-6 -6 -1 -2 -2 -3 -2 -4 0 0 -1 -2 -3 -4 -2 -1 -3 -3 -3 -4 0 0 -2 -3 -5 -6
-7 -9 -9 -12 -13 -17 -2 -2 -5 -5 -5 -6 -1 -1 -3 -3 -3 -5 -1 -1 -3 -3 -4 -4
-2 -3 -10 -14 -12 -17 0 -1 -1 -3 -2 -4 -1 -1 -4 -5 -6 -10 -3 -7 -4 -10 -5
-16 -1 -13 3 -24 11 -35 5 -8 16 -14 28 -17 6 -1 20 -1 22 1 1 0 2 1 2 1 1 0
11 5 14 8 5 4 17 14 17 15 0 0 2 1 4 2 1 1 3 3 3 3 0 0 2 3 5 5 3 2 7 5 9 7 1
1 6 5 10 8 4 3 8 6 9 7 1 1 2 2 2 2 1 0 3 1 5 3 3 4 12 11 16 14 12 9 15 11
15 11 1 0 1 1 1 1 0 1 1 2 2 2 1 1 3 2 5 4 4 3 12 10 23 19 4 4 10 9 12 11 1
1 4 3 5 4 2 2 5 4 7 6 3 2 5 4 5 4 1 0 17 12 20 15 1 1 2 2 2 2 1 0 22 16 32
24 5 4 11 9 14 12 3 2 7 5 9 7 5 4 12 7 19 9 6 1 212 1 219 0 3 0 6 -2 8 -2 2
-1 4 -2 6 -2 1 -1 3 -2 4 -3 1 -2 4 -4 6 -5 2 -1 4 -3 5 -4 0 0 4 -3 7 -6 3
-2 6 -5 6 -5 0 0 1 -1 3 -2 2 -1 3 -2 3 -2 0 -1 1 -1 2 -1 1 -1 3 -3 6 -5 2
-2 4 -4 5 -5 3 -1 10 -7 13 -10 2 -2 3 -3 4 -3 0 0 11 -9 13 -11 1 -1 2 -2 3
-2 1 0 2 -1 4 -2 1 -2 8 -7 15 -13 7 -5 14 -11 15 -12 2 -2 4 -4 5 -5 2 0 5
-3 7 -5 2 -2 4 -4 5 -5 3 -2 21 -17 24 -19 1 -2 3 -3 4 -3 0 0 2 -1 3 -2 1 -2
4 -4 6 -5 3 -2 6 -5 9 -7 1 -1 3 -3 6 -4 2 -2 4 -4 5 -4 0 -1 3 -4 7 -6 4 -3
7 -6 9 -7 8 -8 18 -16 24 -21 3 -2 6 -4 7 -6 8 -7 25 -14 34 -14 5 0 15 2 15
3 0 1 1 1 1 1 2 0 7 2 7 3 0 1 1 1 1 1 3 0 14 12 17 18 2 4 3 7 3 8 0 1 1 2 1
2 2 1 3 20 1 24 -3 7 -7 15 -11 21 -2 3 -4 6 -4 7 0 0 -1 2 -3 4 -4 5 -9 11
-10 12 0 2 -14 19 -17 21 -2 3 -4 5 -4 6 0 1 0 1 -1 1 0 0 -2 2 -3 4 -1 2 -3
4 -3 4 -1 0 -2 1 -2 3 -1 1 -3 4 -4 5 -1 1 -5 5 -8 9 -2 4 -6 7 -7 9 -1 1 -2
3 -2 3 0 1 -1 2 -1 3 -1 0 -3 2 -4 4 -1 2 -4 6 -7 9 -2 2 -4 5 -4 6 0 0 -1 1
-2 2 -1 1 -3 3 -4 5 -1 2 -6 8 -10 13 -4 5 -9 11 -10 13 -1 2 -3 4 -4 5 0 1
-2 2 -3 4 0 2 -1 3 -2 3 0 0 -1 1 -2 3 -1 2 -3 4 -3 4 -1 1 -3 3 -4 5 -1 2 -3
4 -4 6 -3 3 -8 8 -14 17 -4 5 -8 10 -9 12 -1 1 -4 6 -7 9 -2 4 -6 9 -8 11 -2
2 -5 6 -7 9 -2 3 -5 8 -7 9 -6 7 -12 17 -14 23 -2 7 -2 8 -2 101 0 91 0 100 3
103 1 1 1 2 1 3 0 1 1 3 3 5 2 2 3 3 3 4 0 0 1 2 2 3 3 3 8 10 8 11 0 0 13 17
16 21 1 1 2 3 4 4 9 13 13 18 13 18 0 1 1 2 3 4 3 3 16 19 19 23 1 2 4 5 5 6
1 2 4 6 5 8 3 5 9 12 15 21 3 2 6 6 7 8 1 2 4 5 6 6 2 2 3 4 3 5 0 0 1 1 1 2
1 0 3 2 4 4 2 3 8 11 9 12 0 0 1 2 2 4 1 1 3 3 3 4 1 0 3 2 4 4 2 3 3 5 8 11
2 1 4 4 5 5 0 2 2 3 2 4 1 0 4 4 6 8 3 4 6 8 6 8 0 0 4 5 8 11 1 1 3 2 4 4 1
1 2 2 2 3 0 0 1 2 2 3 5 6 6 7 6 8 0 0 5 7 9 11 3 4 9 13 9 15 0 0 0 1 1 1 0
0 1 2 1 4 1 2 2 4 2 4 2 1 2 17 -1 25 -5 15 -11 23 -25 30 -2 1 -4 2 -4 2 -2
2 -17 4 -22 2z M678 1344 c-33 -23 -62 -55 -80 -91 -6 -12 -12 -26 -12 -27 1
0 1 1 2 2 0 1 1 3 2 5 0 1 1 3 1 4 0 0 1 1 2 2 1 0 2 2 2 3 0 5 14 30 17 32 1
1 2 2 2 3 0 2 3 7 5 6 1 0 1 0 1 1 -1 2 0 2 5 8 2 2 4 5 4 5 0 1 7 9 7 8 1 0
1 0 1 1 0 2 17 18 18 17 2 0 4 2 4 4 0 1 0 2 1 2 2 1 3 2 4 3 1 1 2 2 3 2 0 0
1 1 1 1 0 1 0 1 1 1 0 -1 1 0 2 1 1 1 2 2 2 1 1 0 2 1 4 2 1 2 4 4 6 6 5 4 3
4 -5 -2z M542 1341 c-1 -1 -1 -1 -2 -1 0 1 -3 -3 -5 -7 -3 -4 -6 -8 -6 -8 -1
0 -1 -1 -1 -2 0 0 -1 -3 -3 -4 -2 -2 -3 -4 -3 -5 0 -1 -6 -13 -9 -16 -2 -2 -8
-14 -9 -17 0 -3 0 -3 4 5 8 15 15 26 27 44 4 7 8 12 8 13 -1 0 -1 -1 -1 -2z
M327 1337 c-1 -1 0 -2 0 -3 0 -1 1 0 1 1 0 3 -1 4 -1 2z M330 1334 c0 0 0 -2
-1 -3 0 -1 0 -1 1 0 1 1 1 3 1 3 -1 1 -1 1 -1 0z M326 1324 c-2 -6 -5 -19 -5
-20 0 0 2 6 4 12 4 13 5 17 1 8z M439 1320 c-2 -4 -3 -7 -3 -8 1 0 1 1 2 2 0
1 1 3 2 6 1 2 2 4 2 5 0 1 -2 -2 -3 -5z M797 1314 c-3 -1 -6 -1 -6 -1 0 0 -1
-1 -3 -1 -1 -1 -4 -2 -6 -2 -2 -1 -4 -2 -5 -2 0 -1 0 -1 2 -1 14 5 20 6 27 6
6 0 8 0 7 1 -3 1 -8 1 -16 0z M821 1311 c17 -7 26 -19 28 -39 l1 -7 0 9 c-1 6
-1 10 -2 10 0 0 -1 1 -1 2 0 6 -12 20 -22 24 -3 2 -7 3 -8 3 -1 0 1 -1 4 -2z
M434 1308 c-1 -2 -1 -4 -1 -5 1 0 1 2 2 4 1 1 1 3 1 4 -1 0 -1 -2 -2 -3z M766
1309 c0 -1 0 -1 0 -2 1 0 3 1 3 2 0 1 -2 1 -3 0z M771 1305 c-1 -1 -1 -1 0 -1
0 0 1 0 2 1 1 1 1 1 1 1 -1 0 -2 0 -3 -1z M319 1302 c0 -1 0 -4 0 -6 -1 -2 -1
-2 1 1 1 4 1 6 0 6 0 1 -1 0 -1 -1z M761 1301 c-1 0 -3 -1 -5 -2 -2 0 -4 -1
-4 -1 1 0 -4 -3 -16 -10 -5 -2 -9 -5 -9 -5 0 -1 -1 -2 -3 -3 -2 0 -3 -1 -3 -1
1 0 0 -1 -2 -3 -1 -1 3 2 10 6 6 4 17 11 25 14 7 4 12 7 10 7 -1 0 -2 -1 -3
-2z M432 1301 c0 0 0 -2 -1 -3 0 -1 0 -1 1 -1 1 1 2 5 1 5 -1 0 -1 0 -1 -1z
M426 1282 c-2 -7 -5 -15 -6 -19 -4 -7 -15 -19 -21 -23 -2 -1 -3 -2 -3 -3 2 -1
20 15 20 18 0 0 1 1 2 2 1 0 2 3 4 7 1 3 3 8 4 11 1 3 2 7 2 8 0 1 0 3 1 4 1
1 1 3 1 4 0 2 -2 -3 -4 -9z M317 1290 c0 -1 0 -2 1 -1 0 0 0 2 0 2 -1 1 -1 0
-1 -1z M316 1286 c-2 -2 -1 -14 1 -20 1 -7 5 -16 6 -16 0 0 1 -1 2 -3 1 -2 2
-3 3 -3 0 0 1 -1 1 -2 1 -1 3 -3 5 -4 1 -1 3 -3 3 -3 0 -1 1 -1 2 -1 1 0 2 0
2 1 0 0 -2 1 -4 2 -6 5 -12 11 -16 19 -3 7 -3 8 -4 19 0 8 -1 12 -1 11z M502
1276 c-1 -4 -1 -5 1 -2 0 2 1 3 1 4 -1 0 -1 -1 -2 -2z M713 1274 c0 -1 -1 -3
-3 -5 -3 -2 -5 -4 -5 -4 0 -1 2 1 5 3 3 3 6 5 6 6 0 0 -1 0 -2 0 -1 1 -1 1 -1
0z M499 1269 c-1 -1 -1 -2 -1 -3 0 0 1 1 2 2 1 4 1 4 -1 1z M496 1262 c-1 -2
-2 -5 -3 -6 0 -2 -1 -3 -1 -2 -1 0 -2 -4 -2 -7 0 -1 2 3 4 8 2 5 4 10 3 10 0
0 -1 -1 -1 -3z M691 1252 c-7 -7 -12 -13 -13 -14 -1 -1 -2 -2 -3 -2 0 0 -1 -1
-1 -2 0 0 -2 -3 -4 -6 -2 -3 -4 -5 -4 -6 0 0 3 3 7 8 4 6 14 17 31 34 0 0 0 0
0 0 -1 0 -6 -5 -13 -12z M848 1262 c0 -4 -4 -13 -9 -19 -4 -6 -13 -13 -20 -15
-3 -1 -5 -3 -4 -3 1 0 9 3 14 7 1 1 3 2 4 2 1 0 12 13 11 14 0 0 0 1 1 1 2 1
5 15 4 15 -1 0 -1 -1 -1 -2z M488 1244 c0 -1 0 -1 1 -1 1 0 1 0 1 1 0 1 0 1
-1 1 -1 0 -1 0 -1 -1z M486 1238 c0 -1 -1 -3 -2 -6 0 -3 -2 -9 -3 -12 -3 -10
-3 -29 0 -31 1 -1 1 -1 1 1 -1 1 -1 6 -2 12 0 10 0 11 4 23 4 12 4 16 2 13z
M392 1236 c-1 -1 -1 -2 0 -2 0 0 1 1 2 2 2 1 1 1 -2 0z M342 1233 c0 0 1 -1 3
-2 2 0 4 -1 5 -1 0 -1 4 -1 9 -2 9 -1 19 0 27 4 6 2 4 2 -3 0 -9 -3 -23 -4
-32 -1 -3 1 -7 2 -8 3 0 0 -1 0 -1 -1z M585 1224 c-2 -3 -7 -20 -7 -21 0 -2 2
2 3 8 1 3 3 7 4 9 1 2 1 4 1 5 -1 0 -1 0 -1 -1z M803 1223 c-25 -9 -51 -30
-66 -54 -6 -9 -9 -15 -15 -29 -3 -7 -7 -15 -9 -18 -3 -5 -11 -13 -16 -17 -2
-1 -3 -2 -2 -2 4 0 24 22 24 27 0 0 0 1 1 1 1 -1 1 0 1 1 1 2 1 4 2 6 0 2 3
10 8 19 5 10 5 10 6 9 1 -1 1 -1 1 1 0 2 4 9 5 9 1 0 1 1 1 1 0 1 1 3 3 3 1 1
2 2 2 2 -1 0 -1 0 0 1 0 0 1 1 2 3 0 1 1 1 2 1 1 0 1 0 1 1 -1 0 0 2 2 3 2 2
5 5 8 7 2 2 4 4 5 3 1 0 1 0 1 1 0 1 2 3 4 4 3 2 6 4 7 5 0 0 2 1 4 1 1 0 2 0
2 1 -1 0 1 2 3 2 2 1 5 3 6 4 2 0 4 1 6 1 1 0 2 1 2 1 1 2 6 3 7 2 1 -1 1 -1
2 -1 0 1 -2 3 -3 3 0 0 -4 -1 -7 -2z M662 1218 c-1 -2 -2 -3 -2 -4 0 -1 0 -1
-1 -1 -1 0 -1 0 -1 -1 0 -1 -1 -3 -2 -4 -3 -5 -5 -7 -6 -10 -1 -2 -2 -3 -2 -3
-1 0 -1 -1 -1 -2 0 -1 -1 -2 -1 -3 -1 -1 -2 -3 -2 -4 -1 -2 1 1 4 7 3 5 8 13
11 17 6 10 6 10 5 10 0 0 -1 -1 -2 -2z M577 1201 c0 -3 -9 -17 -16 -23 -10
-11 -21 -16 -38 -18 -6 -1 -6 -1 2 -1 5 1 10 1 12 2 2 1 5 2 7 2 2 1 4 2 5 3
1 1 3 2 4 2 1 0 11 10 16 16 2 2 4 5 5 7 1 2 2 4 3 4 1 0 1 1 1 4 0 1 0 3 0 3
-1 0 -1 -1 -1 -1z M483 1183 c0 -1 1 -3 2 -4 0 -1 3 -4 5 -6 2 -3 6 -6 7 -7 5
-3 6 -2 1 1 -5 3 -10 9 -13 14 -1 3 -2 4 -2 2z M641 1181 c0 -1 -1 -3 -2 -5
-1 -3 -2 -6 -3 -7 0 -1 -1 -2 0 -2 0 0 0 -1 -1 -1 0 -1 -1 -3 -1 -4 -1 -2 -2
-5 -3 -7 -3 -6 -3 -8 -4 -15 0 -4 -1 -7 -1 -8 -1 -2 -1 -2 0 -1 0 1 1 -1 1 -5
1 -6 3 -11 4 -10 0 1 0 2 -1 3 -2 6 -3 14 -1 22 1 6 6 24 12 37 2 4 2 5 0 3z
M507 1162 c2 -1 5 -2 6 -2 2 0 1 1 -2 1 -2 1 -5 2 -6 2 -2 1 -1 0 2 -1z M631
1115 c0 -1 2 -3 3 -6 4 -6 10 -10 17 -13 7 -2 24 -2 29 0 2 1 3 2 1 1 -6 -1
-23 -1 -28 0 -6 2 -15 7 -19 13 -1 3 -3 5 -3 5z M688 1100 l-4 -2 3 1 c4 0 8
3 6 3 0 1 -3 0 -5 -2z M1382 834 c0 -1 -7 -1 -15 -1 -9 -1 -18 -1 -20 -2 -9
-1 -29 -7 -29 -8 0 -1 -1 -1 -1 -1 -2 0 -8 -5 -9 -9 -1 -2 -2 -5 -3 -8 -1 -4
-1 -6 2 -13 2 -8 7 -16 17 -28 4 -5 8 -10 9 -12 19 -26 35 -35 66 -38 17 -2
37 -6 40 -8 0 0 3 -1 5 -2 2 0 6 -2 9 -2 7 -3 31 -15 35 -18 2 -1 6 -4 9 -6 2
-2 5 -4 6 -5 1 0 1 -1 2 -1 0 0 2 -1 4 -3 6 -5 10 -9 11 -10 0 -1 4 -4 8 -8 3
-4 6 -7 6 -7 0 -1 2 -3 4 -5 2 -3 4 -5 4 -5 0 -1 1 -2 2 -3 1 -1 3 -4 5 -6 1
-3 3 -6 4 -7 1 -2 2 -4 3 -5 0 -2 1 -3 1 -4 1 0 3 -4 5 -8 14 -31 20 -63 17
-96 -1 -16 -2 -22 -6 -34 -4 -15 -14 -38 -16 -40 -1 0 -1 -1 -1 -2 0 0 -1 -3
-3 -5 -1 -3 -3 -5 -3 -6 -3 -5 -7 -10 -8 -11 -1 -1 -3 -4 -5 -6 -6 -9 -31 -33
-34 -33 0 0 -1 0 -1 -1 0 0 -1 -1 -3 -2 -1 -1 -4 -3 -5 -4 -2 -2 -4 -3 -5 -3
0 0 -1 -1 -2 -1 -2 -2 -27 -14 -35 -17 -10 -4 -30 -9 -37 -10 -4 0 -9 -1 -11
-1 -5 -1 -32 -1 -39 0 -9 2 -22 4 -23 5 -1 0 -4 1 -7 2 -6 0 -17 4 -31 11 -8
4 -26 14 -28 16 -1 1 -4 4 -6 5 -15 11 -38 36 -46 51 -1 2 -3 5 -3 5 -2 2 -10
20 -13 28 -1 3 -3 6 -3 7 -1 1 -7 22 -8 28 0 2 -1 6 -1 8 -1 1 -2 11 -3 21 -1
13 -2 19 -4 22 -1 2 -2 4 -2 5 0 1 -3 8 -4 9 0 0 -1 1 -1 3 -1 1 -4 5 -8 9 -5
4 -8 8 -8 9 0 0 -1 1 -3 2 -1 1 -3 2 -4 3 -1 1 -6 5 -12 10 -6 4 -11 9 -12 9
-3 3 -12 7 -17 9 -8 2 -15 1 -20 -3 -5 -3 -12 -12 -12 -14 0 -1 -1 -3 -1 -4
-2 -4 -4 -10 -5 -17 -1 -4 -2 -10 -2 -14 -2 -11 -2 -57 0 -68 1 -5 2 -12 2
-16 1 -9 6 -30 10 -40 3 -10 9 -25 11 -30 1 -2 3 -6 4 -10 5 -11 5 -11 7 -14
1 -2 2 -3 2 -4 0 -1 1 -3 2 -3 1 -1 2 -3 2 -3 0 -1 1 -3 3 -5 2 -3 3 -5 3 -6
0 0 1 -1 2 -3 1 -1 3 -5 6 -9 2 -4 5 -7 5 -7 0 0 1 -1 2 -3 1 -2 3 -4 3 -4 1
-1 4 -5 7 -9 11 -13 34 -36 45 -43 2 -1 4 -3 4 -4 1 0 2 -1 2 -1 1 0 4 -2 6
-4 3 -2 5 -4 5 -4 1 0 5 -3 11 -6 5 -4 12 -8 14 -9 2 -1 7 -4 9 -5 3 -2 6 -4
9 -4 2 -1 7 -3 12 -5 7 -4 15 -7 26 -11 2 -1 6 -2 8 -3 4 -1 22 -6 31 -7 27
-4 30 -5 59 -4 32 0 45 1 72 8 28 6 61 21 87 37 7 4 14 8 15 9 1 0 2 1 2 1 0
1 1 2 3 2 1 1 4 3 5 4 1 1 5 5 9 7 8 7 8 7 21 19 12 12 24 24 26 28 2 3 3 5 7
9 3 3 16 23 21 31 2 3 7 15 15 31 3 6 6 12 12 31 8 25 8 26 11 45 4 24 5 68 1
92 -1 7 -3 17 -3 20 -1 4 -1 8 -2 8 0 0 -1 2 -1 3 -3 13 -11 37 -17 50 -2 4
-4 9 -4 10 0 0 0 1 -1 1 0 0 -2 3 -4 8 -2 4 -6 10 -8 14 -2 4 -4 7 -5 8 0 1
-2 3 -3 5 -2 2 -3 4 -3 4 0 1 -5 8 -6 9 0 0 -1 1 -2 2 0 1 -2 4 -4 6 -2 2 -4
5 -6 8 -6 8 -27 29 -36 36 -6 5 -10 9 -10 9 0 0 -1 2 -3 2 -4 2 -10 6 -12 8
-2 3 -11 8 -14 10 -2 0 -3 1 -3 2 0 1 0 1 -1 1 0 0 -4 2 -8 4 -4 3 -12 7 -17
10 -5 2 -11 5 -12 5 -5 3 -34 14 -38 15 -2 0 -8 1 -13 3 -15 3 -33 6 -53 8
-19 1 -25 1 -26 1z M588 832 c-6 0 -17 -2 -25 -3 -14 -3 -19 -4 -37 -9 -1 0
-4 -1 -7 -2 -7 -2 -8 -3 -14 -5 -2 -1 -5 -2 -6 -3 -2 0 -8 -3 -24 -11 -3 -1
-9 -4 -14 -7 -6 -3 -12 -7 -15 -8 -2 -2 -6 -4 -7 -5 -2 -2 -4 -3 -5 -3 0 0 -1
0 -1 -1 0 -1 -1 -1 -1 -1 -1 0 -2 0 -2 -1 0 0 -2 -2 -4 -3 -2 -1 -4 -3 -4 -3
0 0 -4 -3 -8 -7 -6 -5 -10 -8 -20 -18 -5 -4 -16 -16 -22 -24 -4 -5 -8 -10 -10
-11 -1 -2 -2 -4 -2 -4 0 -1 -1 -2 -1 -3 -6 -7 -14 -20 -22 -35 -2 -4 -4 -7 -5
-8 0 -1 -1 -3 -2 -4 0 -1 -2 -5 -3 -9 -2 -3 -3 -6 -3 -7 0 0 -1 -4 -3 -7 -2
-4 -3 -8 -3 -8 0 -1 -1 -3 -2 -4 0 -2 -2 -7 -3 -10 -1 -4 -2 -8 -2 -8 0 -1 -1
-3 -1 -4 -1 -2 -2 -8 -3 -14 -3 -14 -4 -21 -5 -33 -1 -14 -1 -62 1 -68 0 -2 2
-8 3 -13 2 -13 4 -22 6 -30 3 -10 8 -25 9 -26 0 -1 1 -3 2 -5 1 -4 6 -15 13
-29 1 -3 4 -7 5 -10 2 -2 3 -4 3 -5 0 0 3 -6 7 -12 4 -5 8 -11 9 -12 0 -1 2
-3 3 -4 1 -2 2 -3 3 -4 0 -2 6 -8 15 -17 12 -14 30 -31 40 -38 3 -3 7 -5 8 -6
1 -1 3 -3 5 -4 2 -1 4 -3 5 -3 4 -4 22 -15 36 -21 11 -6 27 -13 28 -13 1 0 3
-1 5 -2 9 -4 42 -12 58 -14 2 -1 7 -1 12 -2 12 -2 55 -2 70 0 6 1 15 3 18 3 9
1 31 7 44 11 13 5 34 13 39 16 1 1 5 3 9 5 12 6 34 21 48 32 5 4 9 7 11 9 4 3
29 28 29 29 0 0 2 2 4 5 6 7 18 22 23 31 1 2 4 5 5 8 6 8 21 38 21 40 0 1 1 3
2 5 5 10 15 45 19 68 4 26 4 69 -1 99 -1 6 -5 19 -7 20 0 0 -1 2 -2 4 -1 2 -4
5 -8 7 -7 4 -13 5 -21 2 -6 -1 -19 -9 -19 -10 0 0 -2 -2 -4 -3 -6 -4 -19 -14
-27 -22 -4 -4 -8 -7 -8 -7 -1 0 -1 0 -1 -1 0 -1 -1 -3 -3 -4 -2 -3 -6 -12 -9
-18 -2 -6 -5 -27 -7 -42 0 -8 -2 -17 -3 -18 0 -1 -1 -4 -1 -6 -1 -6 -3 -11 -4
-15 -1 -2 -3 -7 -5 -11 -8 -19 -18 -36 -27 -45 0 -1 -2 -3 -3 -5 -1 -2 -4 -5
-6 -7 -2 -2 -4 -4 -4 -5 0 0 0 -1 -1 -1 0 0 -3 -3 -7 -6 -3 -3 -7 -6 -9 -8 -1
-1 -4 -3 -5 -4 -1 -1 -4 -3 -5 -4 -2 -1 -4 -2 -5 -3 -4 -3 -20 -11 -33 -17 -8
-4 -16 -7 -18 -7 0 0 -5 -1 -9 -2 -5 -2 -11 -3 -13 -3 -3 -1 -9 -1 -13 -2 -19
-2 -47 -1 -62 4 -3 0 -8 2 -12 3 -12 3 -30 11 -33 13 0 1 -2 2 -4 3 -3 1 -14
7 -20 12 -3 2 -5 4 -5 4 -1 0 -2 1 -3 2 -1 0 -4 3 -7 6 -5 4 -20 20 -27 28 -4
5 -14 20 -17 26 -7 14 -12 26 -12 30 -1 2 -2 4 -2 5 -1 1 -5 17 -7 28 -1 12
-2 45 0 49 1 2 1 5 1 7 0 5 3 16 6 25 1 4 2 7 2 8 0 1 1 3 2 6 1 2 2 4 2 4 0
1 9 19 12 24 8 15 17 26 34 43 2 3 12 12 14 12 1 1 4 3 7 6 4 3 7 5 8 5 0 0 1
0 1 1 0 1 1 1 1 1 1 0 3 1 4 2 6 4 31 16 39 18 2 0 6 2 9 3 7 2 19 5 33 7 13
1 22 3 26 4 2 1 5 2 5 2 3 0 18 10 21 13 1 2 3 3 4 3 0 0 2 1 3 3 1 1 2 3 3 5
5 4 10 11 17 21 4 5 7 10 8 11 1 1 5 8 7 13 3 6 3 17 1 22 -2 3 -7 9 -11 12
-2 1 -7 3 -18 6 -15 3 -48 5 -74 3z" fill="#1e3a6e" opacity="0.7"/>
  <path d="M693 1633 c-4 0 -12 -2 -17 -3 -19 -3 -63 -15 -73 -20 -2 0 -7 -3
-12 -5 -10 -3 -47 -21 -54 -25 -2 -2 -6 -4 -10 -7 -18 -10 -45 -29 -60 -43
-17 -15 -40 -38 -50 -50 -1 -1 -5 -5 -8 -9 -2 -3 -6 -7 -7 -9 -1 -2 -3 -4 -3
-4 -1 -1 -16 -22 -17 -24 -1 -1 -3 -4 -5 -7 -21 -32 -39 -70 -50 -108 -10 -31
-12 -42 -8 -55 8 -32 45 -45 76 -26 3 2 9 6 13 11 9 9 13 16 17 32 10 33 21
61 40 93 2 3 6 9 14 20 22 32 55 65 88 87 16 11 16 11 33 20 29 15 58 25 92
31 15 3 20 5 27 8 12 6 22 17 27 31 3 8 4 23 2 31 -3 13 -12 24 -24 29 -7 4
-19 5 -31 2z M742 1469 c-2 0 -6 -1 -11 -2 -34 -8 -75 -27 -107 -49 -30 -20
-65 -54 -84 -81 -2 -2 -5 -8 -8 -11 -3 -4 -6 -10 -8 -12 -1 -3 -3 -6 -3 -7
-14 -21 -24 -43 -33 -71 -4 -11 -8 -27 -8 -31 0 -24 16 -42 38 -44 10 0 18 1
28 6 15 8 26 20 32 40 9 24 14 38 24 55 20 35 53 69 88 90 10 6 26 14 28 14 1
0 2 1 3 1 2 2 16 6 35 12 4 1 9 3 11 5 19 11 27 32 23 54 -3 13 -12 25 -25 30
-5 1 -20 2 -23 1z M796 1312 c-18 -5 -33 -11 -49 -20 -13 -7 -27 -16 -35 -22
-7 -7 -19 -18 -26 -26 -13 -14 -14 -15 -23 -28 -4 -6 -8 -13 -9 -14 -5 -8 -16
-32 -23 -50 -3 -12 -4 -25 0 -34 10 -27 48 -30 74 -5 7 7 11 13 15 23 4 11 11
26 15 32 11 17 25 31 41 41 10 7 20 12 31 15 2 1 4 2 4 2 1 1 2 1 4 1 2 0 5 1
15 7 3 1 10 9 13 15 3 6 5 13 5 22 0 15 -8 28 -21 36 -9 5 -22 7 -31 5z" fill="#5b8def"/>
</svg>