<svg width="500" height="500" style="background:#0d1b2e" xmlns="http://www.w3.org/2000/svg" viewBox="616.41 538.93 767.06 767.06">
  <rect x="616.41" y="538.93" width="767.06" height="767.06" fill="#0d1b2e"/>
  <path d="M1110 1191 c-5 0 -12 -2 -16 -3 -51 -9 -96 -26 -145 -54 -7 -4 -41
-27 -48 -33 -29 -22 -61 -54 -81 -80 -22 -30 -34 -49 -49 -79 -15 -30 -25 -57
-33 -86 -6 -25 -3 -40 11 -54 8 -9 17 -13 31 -14 13 -1 24 3 36 11 13 8 21 20
26 37 11 40 22 65 42 98 4 7 6 10 15 22 15 22 41 49 64 67 24 20 58 40 87 51
10 4 22 8 33 11 2 1 6 2 9 3 2 0 6 1 8 1 14 3 30 6 36 9 12 6 24 20 28 34 2 8
3 23 1 30 -3 12 -11 22 -23 27 -5 3 -8 3 -15 4 -6 0 -13 -1 -17 -2z M1155
1027 c-16 -4 -37 -11 -42 -14 -2 0 -3 -1 -4 -1 -2 0 -22 -9 -24 -10 0 -1 -4
-3 -9 -5 -38 -19 -80 -54 -111 -92 -3 -4 -6 -8 -7 -10 -1 -1 -4 -5 -6 -9 -22
-30 -45 -79 -53 -112 -4 -17 2 -36 13 -45 18 -15 47 -12 66 7 10 10 14 16 19
33 9 28 25 58 44 83 8 10 28 30 38 39 17 13 37 26 55 33 9 4 20 8 25 9 14 4
17 5 23 8 7 3 17 13 21 21 12 24 4 52 -18 62 -5 3 -8 3 -15 4 -6 0 -12 -1 -15
-1z M1208 869 c-23 -7 -48 -19 -70 -35 -11 -8 -33 -29 -42 -40 -17 -21 -30
-43 -39 -65 -11 -26 -13 -36 -9 -48 5 -20 21 -29 44 -26 14 3 30 13 39 27 3 3
7 13 9 18 1 5 8 19 12 25 19 30 42 48 75 59 15 5 22 9 28 16 15 18 14 42 -1
58 -12 12 -28 16 -46 11z" fill="#5b8def"/>
</svg>