<svg overflow="hidden" style="background:#ffffff" xmlns="http://www.w3.org/2000/svg" viewBox="616.41 538.93 767.06 767.06">
  <rect x="616.41" y="538.93" width="767.06" height="767.06" fill="#ffffff"/>
  <path d="M1112 1190 c-3 0 -7 -1 -8 -1 -6 0 -34 -6 -49 -11 -37 -10 -71 -24
-106 -45 -8 -4 -33 -21 -40 -26 -10 -8 -19 -15 -20 -16 0 0 -4 -4 -9 -8 -21
-18 -47 -46 -66 -71 -22 -30 -45 -70 -58 -104 -10 -25 -14 -37 -19 -58 -4 -17
-1 -34 8 -45 7 -9 12 -12 22 -16 22 -7 48 2 64 22 5 7 8 13 11 26 6 19 12 37
15 44 0 1 2 4 4 8 11 28 33 63 57 90 29 33 65 62 102 80 22 11 28 14 45 19 19
7 30 10 41 12 13 2 24 5 30 7 12 6 23 19 28 33 2 7 2 9 2 20 -1 10 -1 12 -4
18 -8 19 -28 27 -50 22z M1156 1026 c-4 -1 -10 -3 -14 -4 -4 -1 -10 -3 -12 -3
-2 -1 -6 -2 -8 -3 -54 -20 -95 -46 -133 -86 -11 -11 -27 -29 -31 -36 -1 -1 -4
-5 -6 -8 -22 -31 -41 -71 -52 -109 -2 -8 -2 -11 -2 -18 1 -10 4 -19 9 -26 16
-22 54 -19 75 6 7 8 11 15 15 28 12 39 31 72 58 100 18 19 42 38 64 49 10 5
32 14 38 15 1 1 3 2 5 2 1 1 4 2 8 3 10 2 17 6 24 13 23 23 18 62 -9 74 -5 3
-8 3 -15 4 -5 0 -11 -1 -14 -1z M1212 868 c-3 0 -7 -1 -9 -2 -4 -1 -24 -9 -32
-13 -30 -15 -61 -41 -81 -67 -18 -24 -29 -45 -39 -72 -7 -20 -6 -34 2 -47 7
-9 17 -13 33 -13 10 1 11 1 20 5 9 5 18 12 24 21 2 2 6 11 9 18 7 16 11 24 19
35 6 8 20 23 26 27 1 1 3 3 5 4 10 8 26 15 43 20 8 3 17 8 22 13 4 5 9 14 11
22 1 6 1 8 0 14 -4 27 -28 42 -53 35z" fill="#5b8def"/>
</svg>